<svg width="20" height="19" viewBox="0 0 20 19" fill="none" xmlns="http://www.w3.org/2000/svg">
<path d="M2 2.77333C2 2.26277 2.44772 1.84888 3 1.84888H5.15287C5.64171 1.84888 6.0589 2.17559 6.13927 2.62135L6.87858 6.7221C6.95075 7.12241 6.73206 7.51943 6.3394 7.70093L4.79126 8.41652C5.90756 10.9809 8.12168 13.0277 10.8956 14.0597L11.6697 12.6285C11.866 12.2655 12.2955 12.0634 12.7285 12.1301L17.1644 12.8135C17.6466 12.8878 18 13.2735 18 13.7254V15.7156C18 16.2262 17.5523 16.6401 17 16.6401H15C7.8203 16.6401 2 11.2595 2 4.62223V2.77333Z" fill="white"/>
</svg>
